<svg width="25" height="25" viewBox="0 0 25 25" fill="none" xmlns="http://www.w3.org/2000/svg">
<path d="M2.96045 20.2219H22.9604V22.2219H2.96045V20.2219ZM4.96045 12.2219H6.96045V19.2219H4.96045V12.2219ZM9.96045 12.2219H11.9604V19.2219H9.96045V12.2219ZM13.9604 12.2219H15.9604V19.2219H13.9604V12.2219ZM18.9604 12.2219H20.9604V19.2219H18.9604V12.2219ZM2.96045 7.22189L12.9604 2.22189L22.9604 7.22189V11.2219H2.96045V7.22189ZM4.96045 8.45789V9.22189H20.9604V8.45789L12.9604 4.45789L4.96045 8.45789ZM12.9604 8.22189C12.6952 8.22189 12.4409 8.11654 12.2533 7.929C12.0658 7.74146 11.9604 7.48711 11.9604 7.22189C11.9604 6.95668 12.0658 6.70232 12.2533 6.51479C12.4409 6.32725 12.6952 6.22189 12.9604 6.22189C13.2257 6.22189 13.48 6.32725 13.6676 6.51479C13.8551 6.70232 13.9604 6.95668 13.9604 7.22189C13.9604 7.48711 13.8551 7.74146 13.6676 7.929C13.48 8.11654 13.2257 8.22189 12.9604 8.22189Z" fill="white"/>
</svg>
