<svg width="27" height="26" viewBox="0 0 27 26" fill="none" xmlns="http://www.w3.org/2000/svg">
<path d="M4.11523 22.4985V17.9901L18.1177 4.01419C18.3298 3.81971 18.5643 3.66943 18.821 3.56335C19.0777 3.45728 19.3471 3.40424 19.6293 3.40424C19.9115 3.40424 20.1855 3.45728 20.4514 3.56335C20.7173 3.66943 20.9471 3.82855 21.1409 4.04071L22.5995 5.52582C22.8117 5.72029 22.9665 5.95013 23.0641 6.21533C23.1617 6.48053 23.2102 6.74572 23.2095 7.01092C23.2095 7.2938 23.161 7.56359 23.0641 7.82031C22.9672 8.07702 22.8124 8.3111 22.5995 8.52255L8.62359 22.4985H4.11523ZM19.6028 8.49603L21.0879 7.01092L19.6028 5.52582L18.1177 7.01092L19.6028 8.49603Z" fill="white"/>
</svg>
