<svg width="74" height="60" viewBox="0 0 74 60" fill="none" xmlns="http://www.w3.org/2000/svg">
<path d="M5.55914 53.9431L1.04443 58.4578V1.45959H73.2797V58.4578L68.765 53.9431L64.2503 58.4578L59.7356 53.9431L55.2209 58.4578L50.7062 53.9431L46.1915 58.4578L41.6768 53.9431L37.1621 58.4578L32.6474 53.9431L28.1327 58.4578L23.618 53.9431L19.1033 58.4578L14.5886 53.9431L10.0738 58.4578L5.55914 53.9431Z" fill="#D9D9D9" stroke="#D9D9D9" stroke-width="1.12868"/>
<rect x="34.9043" y="24.0331" width="34.989" height="2.25735" fill="#78797B"/>
<rect x="4.43018" y="24.0331" width="4.51471" height="2.25735" fill="#78797B"/>
<rect x="4.43018" y="28.5478" width="4.51471" height="2.25735" fill="#78797B"/>
<rect x="4.43018" y="33.0625" width="4.51471" height="2.25735" fill="#78797B"/>
<rect x="4.43018" y="37.5772" width="4.51471" height="2.25735" fill="#78797B"/>
<rect x="4.43018" y="40.9633" width="4.51471" height="2.25735" fill="#78797B"/>
<rect x="4.43018" y="45.478" width="4.51471" height="2.25735" fill="#78797B"/>
<rect x="38.2905" y="28.5478" width="31.6029" height="2.25735" fill="#78797B"/>
<rect x="46.1912" y="33.0625" width="23.7022" height="2.25735" fill="#78797B"/>
<rect x="41.6765" y="37.5772" width="28.2169" height="2.25735" fill="#78797B"/>
<rect x="27.0037" y="40.9633" width="42.8897" height="2.25735" fill="#78797B"/>
<rect x="33.7756" y="45.478" width="36.1176" height="2.25735" fill="#78797B"/>
<rect x="42.8052" y="3.71692" width="1.12868" height="16.9301" fill="#78797B"/>
<rect x="45.0625" y="3.71692" width="1.12868" height="16.9301" fill="#78797B"/>
<rect x="48.4487" y="3.71692" width="1.12868" height="16.9301" fill="#78797B"/>
<rect x="50.7061" y="3.71692" width="1.12868" height="16.9301" fill="#78797B"/>
<rect x="51.8347" y="3.71692" width="1.12868" height="16.9301" fill="#78797B"/>
<rect x="59.7354" y="3.71692" width="1.12868" height="16.9301" fill="#78797B"/>
<rect x="61.9927" y="3.71692" width="1.12868" height="16.9301" fill="#78797B"/>
<rect x="54.092" y="3.71692" width="1.12868" height="16.9301" fill="#78797B"/>
<rect x="57.478" y="3.71692" width="1.12868" height="16.9301" fill="#78797B"/>
</svg>
